<svg width="379" height="1629" viewBox="0 0 379 1629" fill="none" xmlns="http://www.w3.org/2000/svg">
<path d="M35.2985 73.2856C33.0141 70.962 31.218 68.2045 30.0161 65.1757C28.8142 62.1469 28.2309 58.9082 28.3004 55.6504C28.4592 49.0185 31.1961 42.7096 35.9303 38.0625C40.6644 33.4155 47.0231 30.7962 53.6568 30.7605L75.3276 30.7372C75.7656 30.721 76.2021 30.7979 76.6082 30.9628C77.0143 31.1277 77.3808 31.3767 77.6837 31.6936C77.9896 32.0082 78.2298 32.3807 78.39 32.7892C78.5502 33.1978 78.6273 33.6342 78.6167 34.0729L78.2435 55.7204C78.0908 62.3524 75.3597 68.6638 70.6299 73.3152C65.9002 77.9666 59.544 80.5918 52.9104 80.6336C49.6298 80.6676 46.3767 80.0337 43.3489 78.7705C40.3212 77.5072 37.5821 75.6411 35.2985 73.2856ZM71.9219 37.2687L53.7035 37.3387C48.7755 37.3663 44.0524 39.3139 40.5374 42.768C37.0224 46.222 34.9924 50.9103 34.8786 55.837C34.842 58.1978 35.2724 60.5425 36.1451 62.7363C37.0178 64.9301 38.3156 66.9298 39.9639 68.6202C41.6404 70.3247 43.6416 71.6757 45.8493 72.5932C48.057 73.5108 50.4263 73.9762 52.8171 73.9621C57.7501 73.9451 62.4803 71.997 65.9945 68.5351C69.5088 65.0731 71.5276 60.3727 71.6186 55.4405L71.9219 37.2687Z" fill="#8888D7"/>
<path d="M127.673 35.6888C129.958 38.0125 131.754 40.77 132.956 43.7987C134.157 46.8275 134.741 50.0662 134.671 53.324C134.512 59.9559 131.776 66.2649 127.041 70.9119C122.307 75.559 115.949 78.1783 109.315 78.2139L87.6441 78.2372C87.2061 78.2534 86.7696 78.1765 86.3635 78.0116C85.9574 77.8468 85.5908 77.5977 85.288 77.2808C84.9821 76.9662 84.7419 76.5938 84.5817 76.1852C84.4215 75.7766 84.3444 75.3402 84.3549 74.9015L84.7282 53.254C84.8809 46.6221 87.6119 40.3106 92.3417 35.6592C97.0715 31.0078 103.428 28.3826 110.061 28.3408C113.342 28.3068 116.595 28.9407 119.623 30.204C122.651 31.4672 125.39 33.3333 127.673 35.6888Z" fill="#8888D7"/>
<path d="M172.306 1609V1539.7H202.6C210.124 1539.7 216.724 1541.15 222.4 1544.06C228.076 1546.96 232.498 1550.99 235.666 1556.13C238.834 1561.28 240.418 1567.35 240.418 1574.35C240.418 1581.28 238.834 1587.35 235.666 1592.57C232.498 1597.71 228.076 1601.74 222.4 1604.64C216.724 1607.55 210.124 1609 202.6 1609H172.306ZM185.176 1598.11H202.006C207.22 1598.11 211.708 1597.12 215.47 1595.14C219.298 1593.16 222.235 1590.39 224.281 1586.82C226.393 1583.26 227.449 1579.1 227.449 1574.35C227.449 1569.53 226.393 1565.37 224.281 1561.88C222.235 1558.31 219.298 1555.54 215.47 1553.56C211.708 1551.58 207.22 1550.59 202.006 1550.59H185.176V1598.11ZM252.909 1609V1556.13H264.69V1570.69L263.304 1566.43C264.888 1562.87 267.363 1560.16 270.729 1558.31C274.161 1556.46 278.418 1555.54 283.5 1555.54V1567.32C282.972 1567.19 282.477 1567.12 282.015 1567.12C281.553 1567.06 281.091 1567.02 280.629 1567.02C275.943 1567.02 272.214 1568.41 269.442 1571.18C266.67 1573.89 265.284 1577.95 265.284 1583.36V1609H252.909ZM293.998 1609V1556.13H306.373V1609H293.998ZM300.235 1547.42C297.925 1547.42 296.011 1546.7 294.493 1545.24C293.041 1543.79 292.315 1542.04 292.315 1540C292.315 1537.88 293.041 1536.14 294.493 1534.75C296.011 1533.3 297.925 1532.57 300.235 1532.57C302.545 1532.57 304.426 1533.26 305.878 1534.65C307.396 1535.97 308.155 1537.65 308.155 1539.7C308.155 1541.88 307.429 1543.73 305.977 1545.24C304.525 1546.7 302.611 1547.42 300.235 1547.42ZM351.919 1609.69C347.629 1609.69 343.702 1608.7 340.138 1606.72C336.64 1604.74 333.835 1601.77 331.723 1597.81C329.677 1593.79 328.654 1588.7 328.654 1582.57C328.654 1576.36 329.644 1571.28 331.624 1567.32C333.67 1563.36 336.442 1560.42 339.94 1558.51C343.438 1556.53 347.431 1555.54 351.919 1555.54C357.133 1555.54 361.72 1556.66 365.68 1558.91C369.706 1561.15 372.874 1564.28 375.184 1568.31C377.56 1572.34 378.748 1577.09 378.748 1582.57C378.748 1588.04 377.56 1592.83 375.184 1596.92C372.874 1600.95 369.706 1604.08 365.68 1606.33C361.72 1608.57 357.133 1609.69 351.919 1609.69ZM322.615 1628.21V1556.13H334.396V1568.61L334 1582.67L334.99 1596.72V1628.21H322.615ZM350.533 1599.1C353.503 1599.1 356.143 1598.44 358.453 1597.12C360.829 1595.8 362.71 1593.89 364.096 1591.38C365.482 1588.87 366.175 1585.93 366.175 1582.57C366.175 1579.13 365.482 1576.2 364.096 1573.76C362.71 1571.25 360.829 1569.33 358.453 1568.01C356.143 1566.69 353.503 1566.03 350.533 1566.03C347.563 1566.03 344.89 1566.69 342.514 1568.01C340.138 1569.33 338.257 1571.25 336.871 1573.76C335.485 1576.2 334.792 1579.13 334.792 1582.57C334.792 1585.93 335.485 1588.87 336.871 1591.38C338.257 1593.89 340.138 1595.8 342.514 1597.12C344.89 1598.44 347.563 1599.1 350.533 1599.1Z" fill="black"/>
</svg>
